<svg width="5" height="9" viewBox="0 0 5 9" fill="none" xmlns="http://www.w3.org/2000/svg">
<path d="M0.999904 8.49997C0.883077 8.5002 0.769859 8.45951 0.679903 8.38497C0.629274 8.343 0.587423 8.29145 0.556747 8.23327C0.526071 8.1751 0.507173 8.11144 0.501135 8.04596C0.495097 7.98047 0.502038 7.91443 0.52156 7.85163C0.541083 7.78883 0.572802 7.73049 0.614903 7.67997L2.8549 4.99997L0.694904 2.31497C0.653371 2.26383 0.622355 2.20498 0.603639 2.14181C0.584923 2.07864 0.578876 2.01239 0.585846 1.94688C0.592815 1.88136 0.612664 1.81787 0.644251 1.76006C0.675838 1.70224 0.71854 1.65123 0.769903 1.60997C0.821636 1.56445 0.882219 1.53012 0.94785 1.50912C1.01348 1.48813 1.08274 1.48093 1.15129 1.48797C1.21984 1.49501 1.28619 1.51615 1.34618 1.55005C1.40617 1.58395 1.45851 1.62988 1.4999 1.68497L3.9149 4.68497C3.98844 4.77444 4.02865 4.88666 4.02865 5.00247C4.02865 5.11828 3.98844 5.2305 3.9149 5.31997L1.4149 8.31997C1.36474 8.38048 1.30103 8.42831 1.22892 8.45959C1.15682 8.49086 1.07836 8.5047 0.999904 8.49997Z" fill="black" stroke="black"/>
</svg>
