<svg width="20" height="20" viewBox="0 0 20 20" fill="none" xmlns="http://www.w3.org/2000/svg">
<path d="M17.5576 6.89648L12.6487 6.17578L10.4543 1.68164C10.3944 1.55859 10.2958 1.45898 10.174 1.39844C9.8685 1.24609 9.49728 1.37305 9.34455 1.68164L7.15014 6.17578L2.24125 6.89648C2.10591 6.91602 1.98217 6.98047 1.88744 7.07812C1.77291 7.19704 1.70979 7.35703 1.71197 7.52293C1.71414 7.68883 1.78143 7.84708 1.89904 7.96289L5.45069 11.4609L4.61159 16.4004C4.59191 16.5153 4.6045 16.6335 4.64792 16.7415C4.69135 16.8496 4.76387 16.9431 4.85727 17.0117C4.95066 17.0802 5.0612 17.1209 5.17634 17.1292C5.29148 17.1375 5.40661 17.113 5.50869 17.0586L9.89943 14.7266L14.2902 17.0586C14.41 17.123 14.5493 17.1445 14.6827 17.1211C15.0191 17.0625 15.2453 16.7402 15.1873 16.4004L14.3482 11.4609L17.8998 7.96289C17.9965 7.86719 18.0603 7.74219 18.0796 7.60547C18.1318 7.26367 17.896 6.94727 17.5576 6.89648V6.89648Z" fill="#46008B"/>
</svg>
