<svg width="68" height="20" viewBox="0 0 68 20" fill="none" xmlns="http://www.w3.org/2000/svg">
<path d="M17.5576 6.89648L12.6487 6.17578L10.4543 1.68164C10.3944 1.55859 10.2958 1.45898 10.174 1.39844C9.8685 1.24609 9.49728 1.37305 9.34455 1.68164L7.15014 6.17578L2.24125 6.89648C2.10591 6.91602 1.98217 6.98047 1.88744 7.07812C1.77291 7.19704 1.70979 7.35703 1.71197 7.52293C1.71414 7.68883 1.78143 7.84708 1.89904 7.96289L5.45069 11.4609L4.61159 16.4004C4.59191 16.5153 4.6045 16.6335 4.64792 16.7415C4.69135 16.8496 4.76387 16.9431 4.85727 17.0117C4.95066 17.0802 5.0612 17.1209 5.17634 17.1292C5.29148 17.1375 5.40661 17.113 5.50869 17.0586L9.89943 14.7266L14.2902 17.0586C14.41 17.123 14.5493 17.1445 14.6827 17.1211C15.0191 17.0625 15.2453 16.7402 15.1873 16.4004L14.3482 11.4609L17.8998 7.96289C17.9965 7.86719 18.0603 7.74219 18.0796 7.60547C18.1318 7.26367 17.896 6.94727 17.5576 6.89648V6.89648Z" fill="#46008B"/>
<path d="M41.3154 6.89648L36.4065 6.17578L34.2121 1.68164C34.1522 1.55859 34.0536 1.45898 33.9318 1.39844C33.6263 1.24609 33.2551 1.37305 33.1024 1.68164L30.908 6.17578L25.9991 6.89648C25.8637 6.91602 25.74 6.98047 25.6452 7.07812C25.5307 7.19704 25.4676 7.35703 25.4698 7.52293C25.472 7.68883 25.5392 7.84708 25.6568 7.96289L29.2085 11.4609L28.3694 16.4004C28.3497 16.5153 28.3623 16.6335 28.4057 16.7415C28.4492 16.8496 28.5217 16.9431 28.6151 17.0117C28.7085 17.0802 28.819 17.1209 28.9341 17.1292C29.0493 17.1375 29.1644 17.113 29.2665 17.0586L33.6572 14.7266L38.048 17.0586C38.1679 17.123 38.3071 17.1445 38.4405 17.1211C38.7769 17.0625 39.0031 16.7402 38.9451 16.4004L38.106 11.4609L41.6576 7.96289C41.7543 7.86719 41.8181 7.74219 41.8374 7.60547C41.8896 7.26367 41.6538 6.94727 41.3154 6.89648V6.89648Z" fill="#46008B"/>
<path d="M65.0732 6.89648L60.1643 6.17578L57.9699 1.68164C57.91 1.55859 57.8114 1.45898 57.6896 1.39844C57.3841 1.24609 57.0129 1.37305 56.8602 1.68164L54.6658 6.17578L49.7569 6.89648C49.6215 6.91602 49.4978 6.98047 49.4031 7.07812C49.2885 7.19704 49.2254 7.35703 49.2276 7.52293C49.2298 7.68883 49.2971 7.84708 49.4147 7.96289L52.9663 11.4609L52.1272 16.4004C52.1075 16.5153 52.1201 16.6335 52.1635 16.7415C52.207 16.8496 52.2795 16.9431 52.3729 17.0117C52.4663 17.0802 52.5768 17.1209 52.692 17.1292C52.8071 17.1375 52.9222 17.113 53.0243 17.0586L57.4151 14.7266L61.8058 17.0586C61.9257 17.123 62.0649 17.1445 62.1983 17.1211C62.5347 17.0625 62.7609 16.7402 62.7029 16.4004L61.8638 11.4609L65.4155 7.96289C65.5121 7.86719 65.5759 7.74219 65.5953 7.60547C65.6475 7.26367 65.4116 6.94727 65.0732 6.89648V6.89648Z" fill="#46008B"/>
</svg>
